<svg width="30" height="30" viewBox="0 0 30 30" fill="none" xmlns="http://www.w3.org/2000/svg">
<path d="M10.6153 0.615381C9.53842 0.307691 7.84612 0 6.61535 0C5.38459 0 3.69229 0.307691 2.61537 0.615381C1.53845 0.769227 0.769227 1.53845 0.615381 2.61537C0.307691 3.69229 0 5.38459 0 6.61535C0 7.84611 0.307691 9.53841 0.461536 10.6153C0.615382 11.6922 1.53845 12.4615 2.46153 12.6153C3.53844 12.7692 5.23074 13.0769 6.46151 13.0769C7.69227 13.0769 9.38457 12.7692 10.4615 12.6153C11.5384 12.4615 12.3076 11.5384 12.4615 10.6153C12.6153 9.53841 12.923 7.84611 12.923 6.61535C12.923 5.38459 12.6153 3.69229 12.4615 2.61537C12.4615 1.53845 11.6923 0.769227 10.6153 0.615381Z" fill="#272323"/>
<path d="M10.6153 17.5385C9.53834 17.3846 7.84604 17.0769 6.61528 17.0769C5.38451 17.0769 3.69222 17.3846 2.6153 17.5385C1.53838 17.6923 0.769152 18.6154 0.615307 19.5384C0.461461 20.6154 0.153771 22.3077 0.153771 23.5384C0.153771 24.7692 0.461461 26.4615 0.615307 27.5384C0.769152 28.6153 1.69222 29.3846 2.6153 29.5384C3.69222 29.6922 5.38451 29.9999 6.61528 29.9999C7.84604 29.9999 9.53834 29.6922 10.6153 29.5384C11.6922 29.3846 12.4614 28.4615 12.6152 27.5384C12.7691 26.4615 13.0768 24.7692 13.0768 23.5384C13.0768 22.3077 12.7691 20.6154 12.6152 19.5384C12.4614 18.4615 11.6922 17.6923 10.6153 17.5385Z" fill="#272323"/>
<path d="M19.5383 12.6156C20.6152 12.7695 22.3075 13.0771 23.5382 13.0771C24.769 13.0771 26.4613 12.7695 27.5382 12.6156C28.6151 12.4618 29.3844 11.5387 29.5382 10.6156C29.6921 9.5387 29.9998 7.8464 29.9998 6.61564C29.9998 5.38488 29.6921 3.69258 29.5382 2.61566C29.3844 1.53874 28.4613 0.769517 27.5382 0.615671C26.4613 0.461826 24.769 0.154135 23.5382 0.154135C22.3075 0.154135 20.6152 0.461826 19.5383 0.615671C18.4613 0.769517 17.6921 1.69259 17.5383 2.61566C17.3844 3.69258 17.0767 5.38488 17.0767 6.61564C17.0767 7.8464 17.3844 9.5387 17.5383 10.6156C17.6921 11.6925 18.4613 12.4618 19.5383 12.6156Z" fill="#272323"/>
<path d="M27.5382 17.5385C26.4613 17.3846 24.769 17.0769 23.5382 17.0769C22.3075 17.0769 20.6152 17.3846 19.5383 17.5385C18.4613 17.6923 17.6921 18.6154 17.5383 19.5384C17.3844 20.6154 17.0767 22.3077 17.0767 23.5384C17.0767 24.7692 17.3844 26.4615 17.5383 27.5384C17.6921 28.6153 18.6152 29.3846 19.5383 29.5384C20.6152 29.6922 22.3075 29.9999 23.5382 29.9999C24.769 29.9999 26.4613 29.6922 27.5382 29.5384C28.6151 29.3846 29.3844 28.4615 29.5382 27.5384C29.6921 26.4615 29.9998 24.7692 29.9998 23.5384C29.9998 22.3077 29.6921 20.6154 29.5382 19.5384C29.3844 18.4615 28.6151 17.6923 27.5382 17.5385Z" fill="#272323"/>
</svg>
